#!OML:ASF F:\VICON\USERDATA\INSTALL\rory3\rory3.ASF
:FULLY-SPECIFIED
:DEGREES
9
root 1.2050231208838795 17.693210392839795 -24.39228647141639 -1.5554384115205049 1.8212743661227664 2.198147873552734
lfemur 10.584286056837131 -1.5794939935774848 -26.83918924718378
ltibia 15.782811122450653
lfoot -18.46358844841161 -2.925448875637045
ltoes 2.5846006040459746
rfemur -30.019088584697577 9.905943009494148 14.522217010403251
rtibia 17.786810577208556
rfoot -9.642609023639162 -13.349382275922764
rtoes 3.113700483229492
lowerback 11.392388917143615 -1.5881773086846458 -3.7766578002648696
upperback -0.2631188701163888 -2.4872364858928293 1.9891157802700998
thorax -6.426936546593838 -1.0622471817861554 4.649505193099071
lowerneck -15.232208264165829 -2.137188274670657 -2.9128526892848354
upperneck 22.950499229887587 -2.06369966207882 -0.7519813275914555
head 9.824681630647241 -1.301979213123598 -0.03976245407377618
lclavicle -1.3874279988077015e-15 -1.8436986189417256e-15
lhumerus -22.513813530160608 -4.365005391182601 79.93630774376439
lradius 35.91117873031473
lwrist 9.04397527631201
lhand -31.346884689232116 23.372200961696127
lfingers 7.125019999999999
lthumb -4.618114609233088 53.301901063397594
rclavicle -1.3874279988077015e-15 -1.8436986189417256e-15
rhumerus -36.895490016442075 -26.93479554784623 -69.77760875953852
rradius 21.26600652651373
rwrist 9.422044848473892
rhand -19.86818608044705 19.77841485310377
rfingers 7.125019999999999
rthumb 6.467023846495432 -10.10278482843512
10
root 1.127195004355046 17.60771570910773 -23.671286679162733 -1.5792182619776534 1.666515134111273 2.1884576454375444
lfemur 12.638685654772802 -2.3060011588695977 -26.77608874025607
ltibia 17.030409507676172
lfoot -18.693788115737334 -2.4658295928795466
ltoes -1.5328528795609704
rfemur -30.489188813019858 8.419127471394372 15.498915649991865
rtibia 20.529910587888608
rfoot -7.602991454591888 -9.407972041457555
rtoes 5.281277043846321
lowerback 11.733885400944263 -1.8459656167471659 -4.337606606266803
upperback -0.5037341185173998 -2.893494799894714 2.410651087672123
thorax -6.78596181028543 -1.218025589864743 5.511281640323256
lowerneck -14.709715052445521 -1.9348633426874393 -3.14649887583369
upperneck 21.888106138638314 -1.648595323886312 -1.1740966787688147
head 9.348189985659072 -1.1669744618543607 -0.08132230615107174
lclavicle -1.3874280538432024e-15 -1.8436986134037457e-15
lhumerus -23.588811774570125 -3.471666951852816 79.97010756537937
lradius 37.27717605940646
lwrist 9.77182316530847
lhand -32.16968133664176 23.076501766516692
lfingers 7.125019999999999
lthumb -5.41252140012697 52.98730192161392
rclavicle -1.3874280538432024e-15 -1.8436986134037457e-15
rhumerus -37.78858827929876 -27.52829458919966 -68.18231161579202
rradius 20.139208637115566
rwrist 10.684892650383851
rhand -19.048292762549075 21.697903796792893
rfingers 7.125019999999999
rthumb 7.2585271937850395 -8.157566003597722
11
root 1.01391774314272 17.565218334846996 -22.879285435902425 -1.5699083212894813 2.227792398864512 2.1781276883850524
lfemur 13.833383740960626 -3.3327571237982094 -26.28948951592797
ltibia 19.74240757472766
lfoot -17.438990203870475 -4.023907198813494
ltoes -5.569916839745742
rfemur -30.66308788166244 7.463590513424258 16.55791409775763
rtibia 25.425307061838577
rfoot -4.8643947628411155 -8.75378362474526
rtoes 0.2505430204174841
lowerback 11.704385717647535 -1.8720954627888386 -4.354446392232096
upperback -0.3678398498315212 -2.944194669038419 2.1721637507620226
thorax -6.629123823736069 -1.2549652929361859 5.266312712404766
lowerneck -16.296294453228935 -1.9435631742261037 -2.583407999300743
upperneck 22.183704216417606 -1.7574238672533602 -1.1034473986660782
head 9.74237308393564 -1.1664444929708395 -0.18330195497728877
lclavicle -1.3874280534707017e-15 -1.8436986438627535e-15
lhumerus -23.608012116770045 -4.305005396523621 79.9899074880758
lradius 37.6852755633768
lwrist 10.038782380005138
lhand -32.03648199206694 21.391606540919252
lfingers 7.125019999999999
lthumb -5.2839719066544895 51.3057066083611
rclavicle -1.3874280534707017e-15 -1.8436986438627535e-15
rhumerus -39.174886433576276 -32.19478914263094 -65.53131538992845
rradius 18.84891122638124
rwrist 14.391386924322793
rhand -19.16509186510085 21.844102977142317
rfingers 7.125019999999999
rthumb 7.145768142625327 -8.015246812374462
12
root 0.9253189322560257 17.63961373080109 -22.07058602654004 -1.955455320050083 2.2059326784158033 0.9392151763650172
lfemur 13.815284406702977 -4.724421758028212 -24.893291971766864
ltibia 25.266604484206596
lfoot -14.122793624497184 -5.41893497237321
ltoes -14.45848366546492
rfemur -29.935388602670848 6.3529139710924145 19.051610746932937
rtibia 28.747805477656296
rfoot -1.1533795075108682 -6.165420092430986
rtoes 3.682269580093874
lowerback 11.713885576173187 -2.194903182046447 -3.24133914211078
upperback -0.4917133782567623 -3.1842634621594232 2.7023079234303027
thorax -6.766332066038987 -1.395193953820596 5.245132741133151
lowerneck -16.526591502053876 -1.7450481567203417 -2.817254281252187
upperneck 22.842099940588316 -1.2966698838740398 -1.514692897084666
head 10.018398234643882 -1.0298697672372588 -0.2348344172973982
lclavicle -1.3874281147453205e-15 -1.843698542794201e-15
lhumerus -24.631509935919183 -2.6815384759069243 80.48590462313493
lradius 36.20867792087318
lwrist 8.979685134576803
lhand -32.36888069822077 21.444106402978605
lfingers 7.125019999999999
lthumb -5.604860705754945 51.350006412374924
rclavicle -1.3874281147453205e-15 -1.843698542794201e-15
rhumerus -40.03358534851335 -33.2153879903244 -64.0498182809694
rradius 18.234012108057367
rwrist 14.044087873913398
rhand -21.7535707600676 19.932613876754893
rfingers 7.125019999999999
rthumb 4.646709219968776 -9.996385584751101
